<mxfile host="app.diagrams.net" agent="Mozilla/5.0 (Windows NT 10.0; Win64; x64) AppleWebKit/537.36 (KHTML, like Gecko) Chrome/126.0.0.0 Safari/537.36" version="24.7.5">
  <diagram name="Page-1" id="Bt-7_2tQ6Ph2RpAQYYb8">
    <mxGraphModel dx="1195" dy="615" grid="1" gridSize="10" guides="1" tooltips="1" connect="1" arrows="1" fold="1" page="1" pageScale="1" pageWidth="1600" pageHeight="900" math="0" shadow="0">
      <root>
        <mxCell id="0" />
        <mxCell id="1" parent="0" />
        <mxCell id="7iDWDDMoxM36y5SqehB2-1" value="Processor Board connection" style="rounded=0;whiteSpace=wrap;html=1;fillColor=#d5e8d4;strokeColor=#82b366;" vertex="1" parent="1">
          <mxGeometry x="440" y="190" width="480" height="80" as="geometry" />
        </mxCell>
        <mxCell id="7iDWDDMoxM36y5SqehB2-2" value="Overcurrent Protection" style="whiteSpace=wrap;html=1;aspect=fixed;fillColor=#fff2cc;strokeColor=#d6b656;" vertex="1" parent="1">
          <mxGeometry x="510" y="70" width="80" height="80" as="geometry" />
        </mxCell>
        <mxCell id="7iDWDDMoxM36y5SqehB2-3" value="Overvoltage protection" style="whiteSpace=wrap;html=1;aspect=fixed;fillColor=#fff2cc;strokeColor=#d6b656;" vertex="1" parent="1">
          <mxGeometry x="640" y="70" width="80" height="80" as="geometry" />
        </mxCell>
        <mxCell id="7iDWDDMoxM36y5SqehB2-4" value="" style="shape=flexArrow;endArrow=classic;html=1;rounded=0;exitX=1;exitY=0.5;exitDx=0;exitDy=0;entryX=0;entryY=0.5;entryDx=0;entryDy=0;fillColor=#f5f5f5;strokeColor=#666666;" edge="1" parent="1" source="7iDWDDMoxM36y5SqehB2-2" target="7iDWDDMoxM36y5SqehB2-3">
          <mxGeometry width="50" height="50" relative="1" as="geometry">
            <mxPoint x="270" y="190" as="sourcePoint" />
            <mxPoint x="320" y="140" as="targetPoint" />
          </mxGeometry>
        </mxCell>
        <mxCell id="7iDWDDMoxM36y5SqehB2-6" value="" style="shape=flexArrow;endArrow=classic;html=1;rounded=0;exitX=0.5;exitY=1;exitDx=0;exitDy=0;entryX=0.5;entryY=0;entryDx=0;entryDy=0;fillColor=#f5f5f5;strokeColor=#666666;" edge="1" parent="1" source="7iDWDDMoxM36y5SqehB2-3" target="7iDWDDMoxM36y5SqehB2-1">
          <mxGeometry width="50" height="50" relative="1" as="geometry">
            <mxPoint x="400" y="240" as="sourcePoint" />
            <mxPoint x="450" y="190" as="targetPoint" />
          </mxGeometry>
        </mxCell>
        <mxCell id="7iDWDDMoxM36y5SqehB2-7" value="On-board I/O extender" style="rounded=0;whiteSpace=wrap;html=1;fillColor=#fff2cc;strokeColor=#d6b656;" vertex="1" parent="1">
          <mxGeometry x="440" y="310" width="480" height="30" as="geometry" />
        </mxCell>
        <mxCell id="7iDWDDMoxM36y5SqehB2-8" value="I2C Power Control" style="whiteSpace=wrap;html=1;aspect=fixed;fillColor=#fff2cc;strokeColor=#d6b656;" vertex="1" parent="1">
          <mxGeometry x="440" y="390" width="80" height="80" as="geometry" />
        </mxCell>
        <mxCell id="7iDWDDMoxM36y5SqehB2-9" value="SPI Power Control" style="whiteSpace=wrap;html=1;aspect=fixed;fillColor=#fff2cc;strokeColor=#d6b656;" vertex="1" parent="1">
          <mxGeometry x="540" y="390" width="80" height="80" as="geometry" />
        </mxCell>
        <mxCell id="7iDWDDMoxM36y5SqehB2-10" value="Display Power Control" style="whiteSpace=wrap;html=1;aspect=fixed;fillColor=#fff2cc;strokeColor=#d6b656;" vertex="1" parent="1">
          <mxGeometry x="640" y="390" width="80" height="80" as="geometry" />
        </mxCell>
        <mxCell id="7iDWDDMoxM36y5SqehB2-11" value="WiFi Board Power Control" style="whiteSpace=wrap;html=1;aspect=fixed;fillColor=#fff2cc;strokeColor=#d6b656;" vertex="1" parent="1">
          <mxGeometry x="740" y="390" width="80" height="80" as="geometry" />
        </mxCell>
        <mxCell id="7iDWDDMoxM36y5SqehB2-12" value="On-board Power Output Power Control" style="whiteSpace=wrap;html=1;aspect=fixed;fillColor=#fff2cc;strokeColor=#d6b656;" vertex="1" parent="1">
          <mxGeometry x="840" y="390" width="80" height="80" as="geometry" />
        </mxCell>
        <mxCell id="7iDWDDMoxM36y5SqehB2-13" value="" style="shape=flexArrow;endArrow=classic;html=1;rounded=0;fillColor=#f5f5f5;strokeColor=#666666;" edge="1" parent="1">
          <mxGeometry width="50" height="50" relative="1" as="geometry">
            <mxPoint x="779.5" y="340" as="sourcePoint" />
            <mxPoint x="779.5" y="390" as="targetPoint" />
          </mxGeometry>
        </mxCell>
        <mxCell id="7iDWDDMoxM36y5SqehB2-14" value="" style="shape=flexArrow;endArrow=classic;html=1;rounded=0;fillColor=#f5f5f5;strokeColor=#666666;" edge="1" parent="1">
          <mxGeometry width="50" height="50" relative="1" as="geometry">
            <mxPoint x="579.5" y="340" as="sourcePoint" />
            <mxPoint x="579.5" y="390" as="targetPoint" />
          </mxGeometry>
        </mxCell>
        <mxCell id="7iDWDDMoxM36y5SqehB2-15" value="" style="shape=flexArrow;endArrow=classic;html=1;rounded=0;fillColor=#f5f5f5;strokeColor=#666666;" edge="1" parent="1">
          <mxGeometry width="50" height="50" relative="1" as="geometry">
            <mxPoint x="679.5" y="340" as="sourcePoint" />
            <mxPoint x="679.5" y="390" as="targetPoint" />
          </mxGeometry>
        </mxCell>
        <mxCell id="7iDWDDMoxM36y5SqehB2-16" value="" style="shape=flexArrow;endArrow=classic;html=1;rounded=0;fillColor=#f5f5f5;strokeColor=#666666;" edge="1" parent="1">
          <mxGeometry width="50" height="50" relative="1" as="geometry">
            <mxPoint x="879.5" y="340" as="sourcePoint" />
            <mxPoint x="879.5" y="390" as="targetPoint" />
          </mxGeometry>
        </mxCell>
        <mxCell id="7iDWDDMoxM36y5SqehB2-18" value="" style="shape=flexArrow;endArrow=classic;html=1;rounded=0;fillColor=#f5f5f5;strokeColor=#666666;" edge="1" parent="1">
          <mxGeometry width="50" height="50" relative="1" as="geometry">
            <mxPoint x="479.5" y="340" as="sourcePoint" />
            <mxPoint x="479.5" y="390" as="targetPoint" />
          </mxGeometry>
        </mxCell>
        <mxCell id="7iDWDDMoxM36y5SqehB2-19" value="" style="shape=flexArrow;endArrow=classic;html=1;rounded=0;entryX=0.5;entryY=0;entryDx=0;entryDy=0;fillColor=#f5f5f5;strokeColor=#666666;" edge="1" parent="1" source="7iDWDDMoxM36y5SqehB2-1" target="7iDWDDMoxM36y5SqehB2-7">
          <mxGeometry width="50" height="50" relative="1" as="geometry">
            <mxPoint x="680" y="270" as="sourcePoint" />
            <mxPoint x="679.5" y="310" as="targetPoint" />
          </mxGeometry>
        </mxCell>
        <mxCell id="7iDWDDMoxM36y5SqehB2-20" value="UART/USB Converters" style="whiteSpace=wrap;html=1;aspect=fixed;fillColor=#fff2cc;strokeColor=#d6b656;" vertex="1" parent="1">
          <mxGeometry x="960" y="390" width="80" height="80" as="geometry" />
        </mxCell>
        <mxCell id="7iDWDDMoxM36y5SqehB2-21" value="" style="shape=flexArrow;endArrow=classic;html=1;rounded=0;entryX=0.5;entryY=0;entryDx=0;entryDy=0;exitX=1;exitY=0.5;exitDx=0;exitDy=0;fillColor=#f5f5f5;strokeColor=#666666;" edge="1" parent="1" source="7iDWDDMoxM36y5SqehB2-1" target="7iDWDDMoxM36y5SqehB2-20">
          <mxGeometry width="50" height="50" relative="1" as="geometry">
            <mxPoint x="960" y="230" as="sourcePoint" />
            <mxPoint x="1010" y="180" as="targetPoint" />
            <Array as="points">
              <mxPoint x="1000" y="230" />
            </Array>
          </mxGeometry>
        </mxCell>
        <mxCell id="7iDWDDMoxM36y5SqehB2-23" value="On-board Chips and Connectors" style="rounded=0;whiteSpace=wrap;html=1;fillColor=#d5e8d4;strokeColor=#82b366;" vertex="1" parent="1">
          <mxGeometry x="440" y="520" width="480" height="80" as="geometry" />
        </mxCell>
        <mxCell id="7iDWDDMoxM36y5SqehB2-24" value="" style="shape=flexArrow;endArrow=classic;html=1;rounded=0;fillColor=#f5f5f5;strokeColor=#666666;" edge="1" parent="1">
          <mxGeometry width="50" height="50" relative="1" as="geometry">
            <mxPoint x="480" y="470" as="sourcePoint" />
            <mxPoint x="480" y="520" as="targetPoint" />
          </mxGeometry>
        </mxCell>
        <mxCell id="7iDWDDMoxM36y5SqehB2-25" value="" style="shape=flexArrow;endArrow=classic;html=1;rounded=0;fillColor=#f5f5f5;strokeColor=#666666;" edge="1" parent="1">
          <mxGeometry width="50" height="50" relative="1" as="geometry">
            <mxPoint x="579.5" y="470" as="sourcePoint" />
            <mxPoint x="579.5" y="520" as="targetPoint" />
          </mxGeometry>
        </mxCell>
        <mxCell id="7iDWDDMoxM36y5SqehB2-26" value="" style="shape=flexArrow;endArrow=classic;html=1;rounded=0;fillColor=#f5f5f5;strokeColor=#666666;" edge="1" parent="1">
          <mxGeometry width="50" height="50" relative="1" as="geometry">
            <mxPoint x="679.5" y="470" as="sourcePoint" />
            <mxPoint x="679.5" y="520" as="targetPoint" />
          </mxGeometry>
        </mxCell>
        <mxCell id="7iDWDDMoxM36y5SqehB2-27" value="" style="shape=flexArrow;endArrow=classic;html=1;rounded=0;fillColor=#f5f5f5;strokeColor=#666666;" edge="1" parent="1">
          <mxGeometry width="50" height="50" relative="1" as="geometry">
            <mxPoint x="779.5" y="470" as="sourcePoint" />
            <mxPoint x="779.5" y="520" as="targetPoint" />
          </mxGeometry>
        </mxCell>
        <mxCell id="7iDWDDMoxM36y5SqehB2-28" value="" style="shape=flexArrow;endArrow=classic;html=1;rounded=0;fillColor=#f5f5f5;strokeColor=#666666;" edge="1" parent="1">
          <mxGeometry width="50" height="50" relative="1" as="geometry">
            <mxPoint x="879.5" y="470" as="sourcePoint" />
            <mxPoint x="879.5" y="520" as="targetPoint" />
          </mxGeometry>
        </mxCell>
        <mxCell id="7iDWDDMoxM36y5SqehB2-29" value="" style="shape=flexArrow;endArrow=classic;html=1;rounded=0;entryX=0;entryY=0.5;entryDx=0;entryDy=0;exitX=0;exitY=0.5;exitDx=0;exitDy=0;fillColor=#f5f5f5;strokeColor=#666666;" edge="1" parent="1" source="7iDWDDMoxM36y5SqehB2-1" target="7iDWDDMoxM36y5SqehB2-23">
          <mxGeometry width="50" height="50" relative="1" as="geometry">
            <mxPoint x="390" y="220" as="sourcePoint" />
            <mxPoint x="390" y="550" as="targetPoint" />
            <Array as="points">
              <mxPoint x="360" y="230" />
              <mxPoint x="360" y="560" />
            </Array>
          </mxGeometry>
        </mxCell>
        <mxCell id="7iDWDDMoxM36y5SqehB2-34" value="Legend" style="swimlane;whiteSpace=wrap;html=1;" vertex="1" parent="1">
          <mxGeometry x="770" y="30" width="270" height="150" as="geometry">
            <mxRectangle x="1010" y="70" width="80" height="30" as="alternateBounds" />
          </mxGeometry>
        </mxCell>
        <mxCell id="7iDWDDMoxM36y5SqehB2-30" value="Component with internal&amp;nbsp;connection only" style="html=1;whiteSpace=wrap;container=1;recursiveResize=0;collapsible=0;fontSize=10;" vertex="1" parent="7iDWDDMoxM36y5SqehB2-34">
          <mxGeometry x="10" y="30" width="250" height="30" as="geometry" />
        </mxCell>
        <mxCell id="7iDWDDMoxM36y5SqehB2-31" value="" style="triangle;html=1;whiteSpace=wrap;fillColor=#fff2cc;strokeColor=#d6b656;" vertex="1" parent="7iDWDDMoxM36y5SqehB2-30">
          <mxGeometry x="15" y="7.5" width="15" height="15" as="geometry" />
        </mxCell>
        <mxCell id="7iDWDDMoxM36y5SqehB2-36" value="Component with external connections" style="html=1;whiteSpace=wrap;container=1;recursiveResize=0;collapsible=0;fontSize=10;" vertex="1" parent="7iDWDDMoxM36y5SqehB2-34">
          <mxGeometry x="10" y="70" width="250" height="30" as="geometry" />
        </mxCell>
        <mxCell id="7iDWDDMoxM36y5SqehB2-37" value="" style="triangle;html=1;whiteSpace=wrap;fillColor=#d5e8d4;strokeColor=#82b366;" vertex="1" parent="7iDWDDMoxM36y5SqehB2-36">
          <mxGeometry x="15" y="7.5" width="15" height="15" as="geometry" />
        </mxCell>
        <mxCell id="7iDWDDMoxM36y5SqehB2-40" value="Part of the power supply component" style="html=1;whiteSpace=wrap;container=1;recursiveResize=0;collapsible=0;fontSize=10;" vertex="1" parent="7iDWDDMoxM36y5SqehB2-34">
          <mxGeometry x="10" y="110" width="250" height="30" as="geometry" />
        </mxCell>
        <mxCell id="7iDWDDMoxM36y5SqehB2-41" value="" style="triangle;html=1;whiteSpace=wrap;fillColor=none;dashed=1;dashPattern=12 12;" vertex="1" parent="7iDWDDMoxM36y5SqehB2-40">
          <mxGeometry x="15" y="7.5" width="15" height="15" as="geometry" />
        </mxCell>
        <mxCell id="7iDWDDMoxM36y5SqehB2-38" value="" style="rounded=0;whiteSpace=wrap;html=1;labelBackgroundColor=none;fontColor=default;fillColor=none;dashed=1;dashPattern=12 12;" vertex="1" parent="1">
          <mxGeometry x="430" y="360" width="500" height="130" as="geometry" />
        </mxCell>
        <mxCell id="7iDWDDMoxM36y5SqehB2-39" value="" style="rounded=0;whiteSpace=wrap;html=1;labelBackgroundColor=none;fontColor=default;fillColor=none;dashed=1;dashPattern=12 12;" vertex="1" parent="1">
          <mxGeometry x="500" y="60" width="230" height="100" as="geometry" />
        </mxCell>
        <mxCell id="7iDWDDMoxM36y5SqehB2-42" value="" style="shape=flexArrow;endArrow=classic;html=1;rounded=0;exitX=0.5;exitY=1;exitDx=0;exitDy=0;entryX=1;entryY=0.5;entryDx=0;entryDy=0;fillColor=#f5f5f5;strokeColor=#666666;" edge="1" parent="1" source="7iDWDDMoxM36y5SqehB2-20" target="7iDWDDMoxM36y5SqehB2-23">
          <mxGeometry width="50" height="50" relative="1" as="geometry">
            <mxPoint x="1070" y="540" as="sourcePoint" />
            <mxPoint x="1120" y="490" as="targetPoint" />
            <Array as="points">
              <mxPoint x="1000" y="560" />
            </Array>
          </mxGeometry>
        </mxCell>
      </root>
    </mxGraphModel>
  </diagram>
</mxfile>
